<?xml version="1.0" encoding="utf-8"?>
<!-- Generator: Adobe Illustrator 22.0.0, SVG Export Plug-In . SVG Version: 6.00 Build 0)  -->
<svg version="1.1" id="Calque_2" xmlns="http://www.w3.org/2000/svg" xmlns:xlink="http://www.w3.org/1999/xlink" x="0px" y="0px"
	 viewBox="0 0 500 500" style="enable-background:new 0 0 500 500;" xml:space="preserve">
<style type="text/css">
	.st0{fill:#B1B6BC;}
	.st1{fill:#FFFFFF;}
	.st2{fill:none;stroke:#B6B9BE;stroke-width:13;stroke-miterlimit:10;}
	.st3{fill:#8F051F;}
</style>
<path class="st0" d="M14.7,110.1c0.1,38.8,0.3,213,0.6,244.4c0.2,33.4,37.6,68.8,73.5,69.2c28.9,0.3,201.6,0.6,245.8,0.5
	c44.2,0,75.8-31.9,75.7-83s-0.3-207.1,0-231c0.5-45.3-37.6-75.6-76.2-75.7c-27-0.1-201-0.1-235.5,0C47.5,34.6,14.6,71.2,14.7,110.1z
	"/>
<rect x="34.8" y="101.9" class="st1" width="359.6" height="249.6"/>
<circle class="st0" cx="129.3" cy="188.1" r="32"/>
<path class="st0" d="M75.9,314.8c0-30.9,14.6-75.4,51.6-75.4s55.4,47.8,55.2,75.5C160.1,314.9,96.9,315,75.9,314.8z"/>
<line class="st2" x1="225.1" y1="166.8" x2="273.1" y2="166.8"/>
<line class="st2" x1="225.1" y1="196.5" x2="254.2" y2="196.5"/>
<line class="st2" x1="225.1" y1="226.7" x2="254.2" y2="226.7"/>
<line class="st2" x1="225.1" y1="256.9" x2="254.2" y2="256.9"/>
<line class="st2" x1="225.1" y1="287.1" x2="263.9" y2="287.1"/>
<line class="st2" x1="225.1" y1="317.3" x2="282.6" y2="317.3"/>
<polygon class="st1" points="404.3,162.9 457,190.8 462.1,261.8 427.6,309.5 388,317.3 382.5,173.1 "/>
<path class="st3" d="M450.8,157.9c-20.8-20.9-46.1-31.4-75.6-31.4c-29.8,0-55.3,10.4-76.3,31.3c-21.1,20.8-31.6,46.1-31.6,75.6
	c0,27.7,9.5,51.9,28.6,72.5c10.1,10.9,22.2,19.5,36.2,25.9c14.1,6.4,28,9.6,41.9,9.6c14.4,0,28.7-3.1,42.7-9.2
	c14.1-6.2,26.1-14.5,36.1-25c19.5-20.7,29.3-45.1,29.3-73.2C482.1,204.1,471.6,178.8,450.8,157.9z M415.1,181.8
	c11.4,0,20.6,9.2,20.6,20.6c0,11.4-9.2,20.6-20.6,20.6c-11.4,0-20.6-9.2-20.6-20.6C394.4,191,403.7,181.8,415.1,181.8z M324.2,181.8
	c11.4,0,20.6,9.2,20.6,20.6c0,11.4-9.2,20.6-20.6,20.6c-11.4,0-20.6-9.2-20.6-20.6C303.5,191,312.8,181.8,324.2,181.8z M426.1,294.3
	c-14.5,11.9-31,17.9-49.4,17.9c-25.9,0-46.9-8.9-63-26.8c-3.9-4.3-7.4-9.5-10.3-15.7c-2.9-6.2-4.4-11.1-4.4-14.7
	c0-0.5,0.1-1.4,0.2-2.7l17.1-0.2c2.9,12.2,9.6,22,20,29.2c10.4,7.3,22.8,10.9,37.1,10.9c15.4,0,28.3-3.6,38.7-10.7
	c10.5-7.2,17.4-17.1,20.7-29.7h17.5C448.7,268.2,440.6,282.4,426.1,294.3z"/>
</svg>
