<?xml version="1.0" encoding="utf-8"?>
<!-- Generator: Adobe Illustrator 22.0.0, SVG Export Plug-In . SVG Version: 6.00 Build 0)  -->
<svg version="1.1" id="Calque_2_1_" xmlns="http://www.w3.org/2000/svg" xmlns:xlink="http://www.w3.org/1999/xlink" x="0px"
	 y="0px" viewBox="0 0 5584.3 4889.8" style="enable-background:new 0 0 5584.3 4889.8;" xml:space="preserve">
<style type="text/css">
	.st0{fill:#B0B5BB;}
	.st1{fill:#FEFEFE;}
	.st2{fill:#8F051F;}
</style>
<g>
	<path class="st0" d="M7.9,959.1c0-2.8,0-5.7,0-8.5c3.2-5.2,2.1-11,2.1-16.6c-0.1-35.9,3.3-71.5,8.6-107
		c28.7-189.8,111.9-352.8,242.2-492.3c76.4-81.8,165.3-147.4,264.5-198.9C692.8,49,871.9,10.5,1059.8,10.3
		c320.4-0.3,640.8-0.4,961.3-0.4c396.4,0,792.8,0.3,1189.2,0.3c265.2,0.1,530.4,0.1,795.6-0.1c58.2,0,116,4.4,172.9,15.5
		c235.9,46,433.4,158.6,585.7,345.8c130.5,160.4,195,345.9,200.9,551.9c1.5,53.2-0.9,106.6-1.2,159.8c-1.1,263.3-0.7,526.6-0.8,790
		c-86.3,0.2-172.6,0.3-258.9,0.6c-22.7,0.1-20.1-3.7-20.1,20.3c-0.1,475.4,0,950.8,0,1426.2c0,28.7,0,28.6,28.9,28.7
		c83.5,0.2,166.9,0.4,250.4,0.6c0.7,62.7,1.8,125.4,2,188.2c0.3,96.3-0.3,192.5,0.2,288.8c0.4,75.5-3.3,150.7-13.6,225.6
		c-18.9,136.8-58.6,266.8-126.6,387.6c-61.2,108.7-140.8,201.5-241.6,275.6c-163.9,120.5-350,174.9-551.2,175.9
		c-286.9,1.4-573.7,1.5-860.6-0.8c-275.6-2.2-551.2-0.1-826.8-1c-216.6-0.7-433.1,0.5-649.7-1.9c-251.5-2.7-503,0.3-754.4-3
		c-95-1.2-186.4-19-274.9-52.5c-154.8-58.7-287.8-150.1-401.7-269.9c-78-82.1-142-173.7-188-277.3c-35.2-79.2-58.5-161.8-59.9-248.6
		c-2.5-159.9-2.2-319.9-3-479.8c-0.3-51.4-0.1-102.9-0.3-154.3c-1.2-343.5,0.6-687-2.2-1030.5c-1.9-233.6-0.5-467.2-0.6-700.8
		c-0.2-231.7-0.4-463.4-0.7-695.1C10,970.1,11.2,964.3,7.9,959.1z M3454.4,2528c-0.2-4.2-0.4-8.3-0.4-12.5
		c-0.1-28.8-0.1-28.8-28.8-30.8c3.7-2.1,7.2-4.3,11-6.3c62.5-32.6,93.1-85.2,93.9-154.6c0.8-72-47.5-139.4-115.7-164.3
		c-24.8-9-50.5-15.5-75.2-24.5c-62.7-22.8-63.7-61.4-60-105.6c0.9-11.1,6.5-18.9,16.3-24.8c127.4-77.3,252.2-158.9,380.3-235.2
		c32.8-19.5,65.9-38.7,96.6-61.5c11-8.2,12.7-18.1,7.1-29.8c-2.4-5.1-5.2-10-8.2-14.9c-70.9-115.9-141.8-231.7-212.9-347.5
		c-22.2-36.2-43.7-72.8-68-107.7c-10.2-14.7-17.5-14.9-28.4-1.1c-9.8,12.3-16.8,26.2-22.4,40.8c-8.7,22.4-16.2,45.3-25.5,67.5
		c-42.8,102.9-151.2,158.7-258.6,133.5c-89.8-21-158.1-97.2-169.3-189c-8.7-71.7,12.7-134.1,63-184.7c46.7-47,105-68.2,171.9-66
		c31.7,1.1,62.3,10.4,94,10.5c14.8,0,31.1,2.6,40.7-13.1c9.1-14.8-1.7-26-8.6-37.4c-20.5-33.9-41.2-67.7-62.1-101.3
		c-69.6-112.3-136.6-226.1-208.4-336.9c-15.6-24-21.2-25.1-45.8-10.9c-125.4,72.5-248.2,149.2-372,224.4
		c-26.6,16.1-52.5,33.8-80.3,47.5c-44.8,22-96.4,10.2-109.7-51c-6.6-30.5-4.4-60.9,1-91.3c5.1-28.7,11.8-57.5,5.5-86.9
		c-6.9-32.2-23.9-59.5-45.1-83.9c-38.1-43.8-84.1-69.8-144.7-57.3c-30.1,6.2-56.3,21.2-81.9,37.4c-59.4,37.7-85.2,91-74.8,161.2
		c6.9,46.6,26.1,86.3,64.3,115.5c25.6,19.5,54.9,31,85.5,39.4c27.4,7.5,54.1,16.6,77.1,34.3c13.8,10.6,24.8,23.4,30.2,40.1
		c9.3,28.8-1,56.4-28.8,76.2c-64.3,45.7-133.4,83.7-200.2,125.5c-88.7,55.5-179.7,107.5-267,165.4c-23.1,15.3-23.6,17.6-9.3,41.8
		c90.3,153.2,183.5,304.6,275.8,456.6c5.3,8.7,11.2,10.1,19.9,7.6c19.6-5.5,32.8-17.4,40.2-36.5c11-28.6,17.3-58.8,30.4-86.7
		c74.2-158.5,281.4-179.3,390.8-42.4c35.9,45,44.5,98,40.1,153.7c-5.2,65.9-32.9,120.5-85.9,160.9c-58.3,44.4-124.6,52.5-194.8,40.3
		c-31.8-5.5-63.2-10.8-93.4,7.1c-10.5,6.3-12.2,11.2-5.6,22.1c60.8,98.8,121,198,181.6,297c34.5,56.3,69,112.6,104.2,168.4
		c11.2,17.7,15.3,17.8,33.1,6.9c108.7-66.3,217.4-132.8,326-199.2c54.7-33.5,109.5-66.8,166.4-96.5c13.7-7.2,27.1-9.3,39.8,0.7
		c30.4,23.8,49.5,53.8,50.3,93.8c0.4,18.2-3,35.6-7.4,53c-6.6,26.2-10.7,52.7-5.4,79.8c12.4,62.8,43.4,112,103.1,140
		c-29.3,0-58.7,0-88,0c-3.4-3.9-6.8-7.8-10.3-11.6c-36.6-39.9-57.8-86.7-56.5-140.9c1-38.9,7.7-77.7,11.5-116.6
		c1.8-18.7,4.5-37.5-2.8-55.9c-2.9-7.2-6.4-9.3-13.7-4.6c-11.9,7.6-24.7,13.9-36.7,21.3c-118.1,72.6-236.3,145.3-354.2,218.2
		c-32.9,20.3-65.2,41.7-97.6,62.8c-17.1,11.2-17.5,13.7-7.5,31.8c4.1,7.4,8.2,14.9,12.6,22.1c89.4,148.8,182.1,295.6,269.7,445.4
		c14.5,24.8,15.1,49.7-0.5,70.1c-13.6,17.7-30.9,30.3-52.9,35.7c-25.8,6.3-51.5,3.6-77.1-1.4c-38-7.3-75.9-14.2-114.6-2.6
		c-104.6,31.4-155.2,151.4-104.4,250.5c31.4,61.2,85.8,92.4,151.5,97.1c47.7,3.4,90.8-19.1,126.9-51.1c31.7-28.1,47-65.5,56.3-105.7
		c6.8-29.1,20.2-54.2,40.4-76.6c33.2-37.1,85.7-36.2,113.2,11.8c13.8,24.1,29.6,47,44.5,70.4c0.1,27.8,0.5,55.5,0.2,83.3
		c-0.1,8,2.2,10.6,10.3,10.4c15.5-0.5,31.1,0.1,46.6,0.2c57.4,96.3,115.7,192.2,176.4,286.5c19.1,29.6,13.9,29.7,46.3,12.2
		c71.3-38.7,139-83.3,208.2-125.6c84.9-51.8,170.7-102,253.5-157.2c6.1-4.1,13.5-7.3,15-15.9c33.4-0.1,66.9-0.8,100.3,0
		c12.5,0.3,15.6-3.1,15.5-15.6c-0.5-131.9-0.3-263.8-0.3-395.8c0-5.6,0.5-11.3,0.8-16.9c32.9,28.5,52.5,64.7,61.9,106.7
		c9.7,43.2,4.6,86-4.2,128.7c-4.7,23.1-8.5,46.5,6.9,68c7.5,10.4,15,14,27.1,6.4c27.1-17,54.8-33,82.3-49.4
		c0.2,49.9,0.9,99.9,0.3,149.8c-0.2,13.5,2.3,18.2,17.3,18.1c104.6-0.8,209.2-0.4,313.8-0.4c23.1,0,23.1,0,23.1-22.9
		c0.1-121.6,0.3-243.1,0.4-364.7c11.6-4.3,20.6-12.8,31-19.2c9.9-6.1,11.4-14.4,5.5-24c-12-19.6-24.1-39.2-36.2-58.8
		c-0.2-2.8-0.7-5.6-0.7-8.4c0-166.3,0-332.6,0-499c0-3.8,0.4-7.5,0.6-11.3c4.4-1.6,9-3,13.3-4.9c66-29.1,108.1-77.6,113.4-151
		c9.4-130.9-114.8-223.5-237.9-178.1c-52.5,19.4-88.7,55.6-104.5,110.5c-41.4,0.1-82.8,0.7-124.2,0.1c-11.7-0.2-15.1,3-15,14.8
		c0.5,37.6-0.2,75.3-0.4,112.9c-17.2-6.5-28.6-19.5-38-34.4c-18.9-30.3-37.3-61.1-56-91.5c-26.7-43.2-53.5-86.3-80.3-129.4
		c-0.2-33.3-0.9-66.6-0.3-99.8c0.2-12.3-2.2-17.5-15.9-16.5c-18.2,1.2-36.6,0.1-54.8-0.1c-23.5-42-49-82.7-76.3-122.3
		c-5.9-8.5-13.1-10-22-5c-4.5,2.5-9.3,4.6-13.7,7.3c-150.9,92.3-301.8,184.6-452.6,277c-21,12.9-21.7,18.8-5.3,38.2
		c2.4,2.8,5.4,5.2,8.3,7.6c18.7,15.6,41.5,22.3,64.2,28.3c45.8,12.2,83.5,36.7,113.9,72.6c47.9,56.4,73.5,120,57.5,194.7
		C3560.1,2442.6,3520.6,2496,3454.4,2528z M722.9,2576c-104.9-2.9-190.3,85-175.7,199.4c17.3,135.1,169.9,197.2,279.5,116.1
		c40.1-29.7,60.7-71,72.7-117.9c6.2-24.4,15.5-47.5,30.2-68.2c32-45.2,94.1-46.8,128-3c8.9,11.5,17.6,23.4,25.3,35.8
		c52.1,84.8,103.7,169.9,155.9,254.6c35.9,58.2,69.4,117.9,108.6,174.1c7.3,10.5,15,13.3,26.1,7.1c12.3-6.9,25.1-13.1,37.2-20.5
		c144.6-88.1,289.2-176.3,433.7-264.5c18.2-11.1,19.8-18.2,8.4-36.3c-4.4-7-10.3-12.1-17.6-16c-11.8-6.3-24.7-9.2-37.7-11.7
		c-51.1-9.9-97.5-30.5-135.6-66.1c-59.8-56-77.7-125.6-63-205.2c20.7-112,104.3-181.1,219.7-180.6c70.8,0.3,129.3,32.1,174.3,86.5
		c34,41,51.6,88.1,48.6,142.4c-1.6,28.9-8.6,56.8-13.7,85c-4,22.3-5.9,43.8,7.8,64c5,7.3,8.8,9,16.8,4.2c159.7-96,320-191,478.4-289
		c20.9-13,21.2-15.1,8.2-36.5c-51.2-84.2-102.4-168.5-153.7-252.6c-43-70.5-86-140.9-129.5-211c-11-17.8-14.9-35.8-6.6-55
		c12.5-29.1,33.8-47.9,65.6-54.6c26.8-5.6,52.6,0.1,78.4,5.1c29.3,5.7,58.6,9.1,88.5,5.3c93.1-11.8,183.7-127.1,130.3-243.3
		c-29.2-63.5-78.2-101.8-147.4-105.1c-69.4-3.4-127,24.1-163.5,86.7c-18.7,32.1-25.5,68.9-38.3,103.2c-6.9,18.5-16.6,34.8-31.6,47.8
		c-29.1,25.3-87.6,19.5-106.5-11.2c-73.9-120.1-147.4-240.5-221.3-360.6c-22-35.8-44.6-71.1-67.4-106.4
		c-10.8-16.7-14.5-17.5-32.4-8.9c-8.5,4.1-16.8,8.5-24.9,13.4c-120.3,73.6-240.7,147.1-360.8,220.9c-27.7,17-55.1,34.7-82.1,52.8
		c-17.8,11.9-18,21.3-2.3,36.1c11.5,10.9,25.3,18.1,39.9,23.6c16.3,6.2,32.9,11.6,49.3,17.5c101.9,36.1,168.2,131.4,154.6,238.7
		c-14.9,117.2-107.9,198-224.8,196.1c-74.9-1.2-134.7-35.3-177.9-97.2c-38.7-55.6-46.3-117.2-35.7-182.4c3.6-22.3,7.8-44.6,7.4-67.3
		c-0.3-15-7.9-26.8-19.9-34c-9.6-5.7-17.3,4.5-24.8,9.1c-111.6,67.9-223.1,136.1-334.5,204.3c-39.4,24.1-78.9,48.1-117.7,73.3
		c-19.8,12.8-19.7,17.5-7.8,38.1c71.4,123.8,147.5,244.8,221.5,367.1c18.3,30.3,38.3,59.7,54.2,91.1c21.9,43.4,7,98.9-51.4,112.8
		c-18,4.3-36.2,5.2-54.7,3.1C781.8,2582.8,752.9,2574.7,722.9,2576z M2188.9,3690.7c1,40.1-11,78.7-32,115
		c-41.7,72-130.5,115.1-212.5,105.4c-32.2-3.8-64-11.8-96.9-10c-37.5,2.1-43.6,12.4-24.4,43.7c91.5,149.7,183,299.5,274.5,449.2
		c16,26.2,15.9,26.2,42.6,10.7c110-64.3,218.4-131.1,326.9-197.8c39.4-24.2,78.6-48.7,118.5-72.1c53.7-31.5,112.6-4.7,122.9,55.9
		c3.2,19,3,38.6-0.9,57.7c-7.1,35.1-14.5,70.2-8.6,106.3c18.4,111.4,150.2,188.9,262.2,120.7c58.3-35.5,90.6-87.2,86.8-156
		c-4.7-83.8-55.4-143.2-136.6-166.1c-28.3-8-56-17.2-80.2-34.3c-35.5-25.1-48.6-62.2-33.7-95.6c8.8-19.7,24.5-33.2,42.5-44.2
		c116.7-71.4,233.4-142.7,350.2-214c29.4-17.9,59.2-35.3,87.2-55.3c17-12.2,18.3-17,9.1-35.3c-6.2-12.2-12.7-24.2-19.9-35.9
		c-61.6-101.1-123.2-202.2-185.2-303.1c-25.7-41.8-50.1-84.4-78-124.8c-5.7-8.3-11-16.7-23.3-14.9c-12.5,1.8-12.9,12.5-15.8,21
		c-7.7,22.3-14.7,44.8-22.4,67.1c-12.4,35.4-28.2,69-53.9,97.1c-39.7,43.5-88.5,67.2-147.6,71.2c-67.2,4.5-127.3-11.4-176.9-58.5
		c-52.9-50.1-72.9-111.7-67.2-184.2c7.6-96,73.2-177.1,166.5-200.8c42.2-10.7,84.1-6.1,126.2,1.7c23.2,4.3,46.6,7.3,69.8-1.2
		c16.9-6.2,20.8-14.2,13.6-30.2c-3.1-6.9-6.6-13.6-10.5-20c-53.7-88.8-107.2-177.7-161.5-266.2c-36.2-59.1-70.4-119.5-110.1-176.5
		c-11.7-16.9-14-17.4-32.3-7.9c-46.5,24.2-90.2,53.1-135,80.3c-110.4,67.2-220.4,135.1-330.9,202.2c-44.2,26.9-95.4,4.7-106.4-45.7
		c-6.3-28.9-6-58.2-2.6-87.3c3.3-28.2,7.7-56.5,3.1-84.5c-16.1-98.9-102.9-160.6-201.8-144.5c-99.5,16.2-164.2,122.4-132.8,218.1
		c19.3,58.7,63,93.5,116.9,117.7c28.8,12.9,58.1,24.9,86.7,38.2c25.6,11.9,42.7,31.1,44,60.8c1.4,30.8-12.7,52.8-38.8,68.7
		c-138.6,84.3-277.1,169-415.5,253.6c-14.5,8.9-29.1,17.7-42.6,27.9c-13.8,10.3-14.7,18.5-5.9,32.8c92,150.5,184,301,276.4,451.4
		c6.6,10.8,12,27.6,26.4,26.5c14-1.1,20-17.2,26.6-29c12.1-21.5,17.9-45.6,26.6-68.5c32.7-86.5,90.6-143.1,185-156.9
		C2071.8,3450.3,2189.2,3552.3,2188.9,3690.7z"/>
	<path class="st1" d="M7.9,959.1c3.3,5.2,2.1,11,2.1,16.6c0.3,231.7,0.5,463.4,0.7,695.1c0.2,233.6-1.2,467.2,0.6,700.8
		c2.8,343.5,1,687,2.2,1030.5c0.2,51.4,0.1,102.9,0.3,154.3c0.8,159.9,0.5,319.9,3,479.8c1.4,86.8,24.7,169.5,59.9,248.6
		c46,103.7,110,195.2,188,277.3c113.9,119.8,246.8,211.3,401.7,269.9c88.5,33.5,179.9,51.3,274.9,52.5c251.5,3.2,503,0.3,754.4,3
		c216.6,2.3,433.1,1.2,649.7,1.9c275.6,0.9,551.2-1.2,826.8,1c286.9,2.3,573.8,2.2,860.6,0.8c201.2-1,387.3-55.4,551.2-175.9
		c100.7-74.1,180.4-166.9,241.6-275.6c68-120.7,107.7-250.8,126.6-387.6c10.3-74.9,14-150,13.6-225.6c-0.5-96.3,0.1-192.5-0.2-288.8
		c-0.2-62.7-1.3-125.4-2-188.2c18.8-0.2,37.8-1.4,56.5-0.3c14.4,0.9,18.4-3.1,18.4-18c-0.4-480-0.4-960-0.4-1440
		c0-2.4-0.3-4.8,0.1-7.1c1.5-9.2-2.9-10.8-11.2-10.7c-21.2,0.4-42.4-0.2-63.6-0.3c0.1-263.3-0.3-526.6,0.8-790
		c0.2-53.3,2.7-106.6,1.2-159.8c-5.8-206.1-70.4-391.5-200.9-551.9c-152.3-187.2-349.7-299.7-585.7-345.8
		c-57-11.1-114.8-15.6-172.9-15.5c-265.2,0.2-530.4,0.1-795.6,0.1c-396.4-0.1-792.8-0.3-1189.2-0.3c-320.4,0-640.8,0.1-961.3,0.4
		C871.9,10.5,692.8,49,525.3,135.8C426.1,187.3,337.2,253,260.8,334.7C130.5,474.3,47.3,637.3,18.6,827.1
		c-5.4,35.5-8.8,71.1-8.6,107c0,5.6,1.1,11.4-2.1,16.6C7.9,640.1,8,329.6,7.6,19.1c0-9.7,1.9-11.6,11.6-11.6
		c1852.8,0.3,3705.5,0.3,5558.3,0c9.7,0,11.6,1.9,11.6,11.6c-0.3,1621.5-0.3,3243.1,0,4864.6c0,9.7-1.9,11.6-11.6,11.6
		c-1852.8-0.3-3705.5-0.3-5558.3,0.1c-12.2,0-11.4-4.8-11.4-13.1C7.9,3574.5,7.9,2266.8,7.9,959.1z M5231.6,2427.1
		c0,302.5,0.1,604.9-0.3,907.4c0,11.3,2.1,14.9,14.3,14.9c108.5-0.6,217.1-0.5,325.6,0c11.8,0.1,14.6-2.9,14.6-14.7
		c-0.3-604.9-0.3-1209.8,0-1814.7c0-11.5-2.5-15-14.5-14.9c-108.1,0.5-216.1,0.5-324.2-0.1c-13.3-0.1-15.8,3.8-15.8,16.3
		C5231.7,1823.1,5231.6,2125.1,5231.6,2427.1z"/>
	<path class="st1" d="M722.9,2576c30-1.3,58.9,6.8,88.3,10.1c18.6,2.1,36.7,1.2,54.7-3.1c58.4-13.9,73.3-69.4,51.4-112.8
		c-15.9-31.5-35.9-60.9-54.2-91.1c-73.9-122.3-150-243.3-221.5-367.1c-11.9-20.6-11.9-25.3,7.8-38.1c38.8-25.2,78.3-49.2,117.7-73.3
		c111.4-68.2,222.9-136.4,334.5-204.3c7.6-4.6,15.2-14.8,24.8-9.1c12,7.1,19.6,19,19.9,34c0.5,22.8-3.8,45-7.4,67.3
		c-10.6,65.3-3,126.9,35.7,182.4c43.1,62,103,96,177.9,97.2c116.9,1.9,209.9-79,224.8-196.1c13.6-107.3-52.7-202.6-154.6-238.7
		c-16.4-5.8-33-11.3-49.3-17.5c-14.6-5.5-28.4-12.8-39.9-23.6c-15.7-14.8-15.5-24.1,2.3-36.1c27-18.1,54.4-35.8,82.1-52.8
		c120.2-73.8,240.5-147.4,360.8-220.9c8-4.9,16.4-9.3,24.9-13.4c17.9-8.6,21.6-7.8,32.4,8.9c22.7,35.3,45.4,70.6,67.4,106.4
		c73.9,120.1,147.4,240.5,221.3,360.6c18.9,30.7,77.3,36.5,106.5,11.2c15-13,24.6-29.3,31.6-47.8c12.9-34.4,19.6-71.1,38.3-103.2
		c36.5-62.6,94.1-90.1,163.5-86.7c69.2,3.4,118.2,41.6,147.4,105.1c53.4,116.2-37.2,231.5-130.3,243.3c-29.9,3.8-59.2,0.4-88.5-5.3
		c-25.8-5-51.6-10.7-78.4-5.1c-31.8,6.6-53.1,25.5-65.6,54.6c-8.3,19.3-4.4,37.3,6.6,55c43.5,70.1,86.5,140.6,129.5,211
		c51.3,84.1,102.5,168.4,153.7,252.6c13,21.4,12.7,23.5-8.2,36.5c-158.5,98-318.8,193-478.4,289c-8,4.8-11.8,3.2-16.8-4.2
		c-13.7-20.2-11.8-41.6-7.8-64c5.1-28.2,12.1-56.1,13.7-85c3-54.3-14.6-101.4-48.6-142.4c-45.1-54.4-103.5-86.2-174.3-86.5
		c-115.4-0.4-199,68.6-219.7,180.6c-14.7,79.5,3.2,149.2,63,205.2c38.1,35.6,84.4,56.3,135.6,66.1c13,2.5,25.8,5.4,37.7,11.7
		c7.2,3.9,13.1,9,17.6,16c11.4,18.1,9.8,25.2-8.4,36.3c-144.6,88.2-289.1,176.4-433.7,264.5c-12.1,7.3-24.8,13.5-37.2,20.5
		c-11.1,6.3-18.8,3.5-26.1-7.1c-39.2-56.2-72.7-115.8-108.6-174.1c-52.2-84.7-103.8-169.8-155.9-254.6
		c-7.6-12.4-16.3-24.3-25.3-35.8c-33.9-43.8-96-42.2-128,3c-14.7,20.7-23.9,43.8-30.2,68.2c-12,46.8-32.6,88.2-72.7,117.9
		c-109.6,81.1-262.2,19-279.5-116.1C532.6,2660.9,617.9,2573.1,722.9,2576z"/>
	<path class="st1" d="M3289.8,2484.9c-59.7-28-90.7-77.2-103.1-140c-5.3-27-1.2-53.5,5.4-79.8c4.4-17.4,7.8-34.8,7.4-53
		c-0.8-40-19.9-70-50.3-93.8c-12.7-10-26.1-7.9-39.8-0.7c-56.9,29.7-111.7,63-166.4,96.5c-108.6,66.5-217.3,132.9-326,199.2
		c-17.8,10.9-22,10.8-33.1-6.9c-35.3-55.8-69.8-112.1-104.2-168.4c-60.6-99-120.7-198.2-181.6-297c-6.7-10.9-5-15.8,5.6-22.1
		c30.2-18,61.6-12.7,93.4-7.1c70.2,12.2,136.5,4,194.8-40.3c53-40.3,80.8-94.9,85.9-160.9c4.4-55.6-4.2-108.7-40.1-153.7
		c-109.4-136.9-316.7-116.1-390.8,42.4c-13.1,27.9-19.4,58.1-30.4,86.7c-7.3,19.1-20.6,31-40.2,36.5c-8.8,2.4-14.7,1-19.9-7.6
		c-92.3-152-185.5-303.4-275.8-456.6c-14.3-24.2-13.8-26.5,9.3-41.8c87.3-57.8,178.3-109.8,267-165.4
		c66.8-41.8,135.9-79.8,200.2-125.5c27.9-19.8,38.2-47.4,28.8-76.2c-5.4-16.7-16.5-29.5-30.2-40.1c-22.9-17.6-49.7-26.7-77.1-34.3
		c-30.7-8.4-59.9-19.9-85.5-39.4c-38.3-29.1-57.4-68.9-64.3-115.5c-10.4-70.1,15.3-123.5,74.8-161.2c25.6-16.2,51.8-31.2,81.9-37.4
		c60.7-12.5,106.6,13.5,144.7,57.3c21.2,24.4,38.2,51.6,45.1,83.9c6.3,29.4-0.4,58.2-5.5,86.9c-5.4,30.4-7.6,60.8-1,91.3
		c13.3,61.2,64.9,73,109.7,51c27.8-13.7,53.7-31.4,80.3-47.5c123.8-75.1,246.6-151.9,372-224.4c24.6-14.2,30.2-13.1,45.8,10.9
		c71.8,110.9,138.9,224.7,208.4,336.9c20.9,33.7,41.6,67.5,62.1,101.3c6.9,11.4,17.7,22.5,8.6,37.4c-9.6,15.7-25.9,13.1-40.7,13.1
		c-31.7-0.1-62.3-9.4-94-10.5c-66.9-2.2-125.2,19-171.9,66c-50.3,50.6-71.7,113-63,184.7c11.2,91.8,79.5,168,169.3,189
		c107.4,25.1,215.7-30.6,258.6-133.5c9.2-22.2,16.8-45.1,25.5-67.5c5.6-14.6,12.7-28.4,22.4-40.8c10.9-13.8,18.2-13.6,28.4,1.1
		c24.3,34.8,45.8,71.5,68,107.7c71.1,115.8,142,231.6,212.9,347.5c3,4.8,5.8,9.8,8.2,14.9c5.6,11.7,3.9,21.6-7.1,29.8
		c-30.7,22.8-63.9,42-96.6,61.5c-128.1,76.3-252.9,157.9-380.3,235.2c-9.8,5.9-15.4,13.7-16.3,24.8c-3.7,44.2-2.6,82.8,60,105.6
		c24.8,9,50.5,15.5,75.2,24.5c68.2,24.9,116.5,92.3,115.7,164.3c-0.8,69.4-31.4,122-93.9,154.6c-3.7,1.9-7.3,4.2-11,6.3
		C3380,2484.8,3334.9,2484.8,3289.8,2484.9z"/>
	<path class="st1" d="M2188.9,3690.7c0.3-138.5-117.1-240.4-251.5-220.7c-94.4,13.9-152.3,70.4-185,156.9
		c-8.7,22.9-14.5,47-26.6,68.5c-6.6,11.8-12.6,27.9-26.6,29c-14.4,1.1-19.8-15.6-26.4-26.5c-92.3-150.3-184.3-300.9-276.4-451.4
		c-8.7-14.3-7.8-22.5,5.9-32.8c13.5-10.2,28.1-19,42.6-27.9c138.4-84.6,276.9-169.3,415.5-253.6c26.2-15.9,40.3-37.9,38.8-68.7
		c-1.4-29.6-18.4-48.8-44-60.8c-28.6-13.3-57.9-25.3-86.7-38.2c-54-24.3-97.7-59-116.9-117.7c-31.4-95.7,33.3-201.9,132.8-218.1
		c98.9-16.1,185.6,45.6,201.8,144.5c4.6,28.1,0.2,56.4-3.1,84.5c-3.4,29.1-3.7,58.4,2.6,87.3c11,50.4,62.2,72.6,106.4,45.7
		c110.4-67.1,220.5-135,330.9-202.2c44.7-27.2,88.4-56.1,135-80.3c18.3-9.5,20.5-9,32.3,7.9c39.7,57,73.8,117.4,110.1,176.5
		c54.2,88.5,107.7,177.4,161.5,266.2c3.9,6.4,7.4,13.2,10.5,20c7.2,16.1,3.3,24-13.6,30.2c-23.2,8.5-46.6,5.5-69.8,1.2
		c-42-7.7-84-12.4-126.2-1.7c-93.3,23.7-158.9,104.7-166.5,200.8c-5.7,72.5,14.3,134.1,67.2,184.2c49.7,47.1,109.7,63,176.9,58.5
		c59.1-4,108-27.7,147.6-71.2c25.6-28.1,41.5-61.7,53.9-97.1c7.8-22.3,14.7-44.8,22.4-67.1c2.9-8.5,3.3-19.2,15.8-21
		c12.3-1.8,17.6,6.7,23.3,14.9c27.9,40.4,52.3,83,78,124.8c62,100.8,123.6,202,185.2,303.1c7.1,11.7,13.7,23.7,19.9,35.9
		c9.3,18.3,8,23.1-9.1,35.3c-28,20.1-57.8,37.4-87.2,55.3c-116.8,71.3-233.5,142.6-350.2,214c-18,11-33.7,24.5-42.5,44.2
		c-14.9,33.4-1.7,70.5,33.7,95.6c24.3,17.2,52,26.4,80.2,34.3c81.2,22.9,131.9,82.3,136.6,166.1c3.8,68.8-28.5,120.5-86.8,156
		c-112,68.2-243.8-9.3-262.2-120.7c-6-36.1,1.5-71.2,8.6-106.3c3.9-19.2,4.1-38.7,0.9-57.7c-10.3-60.6-69.1-87.4-122.9-55.9
		c-39.9,23.4-79.1,47.9-118.5,72.1c-108.5,66.7-217,133.5-326.9,197.8c-26.6,15.6-26.5,15.5-42.6-10.7
		c-91.5-149.7-183-299.5-274.5-449.2c-19.2-31.3-13.1-41.6,24.4-43.7c32.9-1.8,64.7,6.1,96.9,10c82,9.7,170.8-33.4,212.5-105.4
		C2177.8,3769.5,2189.9,3730.8,2188.9,3690.7z"/>
	<path class="st2" d="M3901.2,1873.3c18.3,0.1,36.6,1.3,54.8,0.1c13.6-0.9,16.1,4.3,15.9,16.5c-0.6,33.3,0.1,66.6,0.3,99.8
		c-0.2,4.2-0.5,8.5-0.5,12.7c0,301.5,0,603,0,904.5c0,4.7,0.5,9.4,0.8,14.1c-0.3,5.6-0.8,11.3-0.8,16.9c0,131.9-0.2,263.8,0.3,395.8
		c0,12.5-3,15.9-15.5,15.6c-33.4-0.8-66.9-0.1-100.3,0c-74.8-0.1-149.6-0.5-224.3,0c-12.1,0.1-14.4-3.3-14.3-14.8
		c0.4-54.5-0.2-109.1-0.4-163.6c1.1-64.4,1.3-128.9-0.1-193.3c0.3-6.6,0.8-13.2,0.8-19.7c0-355.3,0-710.6,0-1065.9
		c0-18.2,0-18.2,18.9-18.2C3724.7,1873.6,3812.9,1873.5,3901.2,1873.3z"/>
	<path class="st2" d="M4963.4,1873.2c21.2,0.2,42.4,0.7,63.6,0.3c8.2-0.2,12.7,1.5,11.2,10.7c-0.4,2.3-0.1,4.7-0.1,7.1
		c0,480-0.1,960,0.4,1440c0,15-4,18.9-18.4,18c-18.8-1.2-37.7,0.1-56.5,0.3c-83.5-0.2-166.9-0.4-250.4-0.6
		c-28.9-0.1-28.9,0-28.9-28.7c0-475.4,0-950.8,0-1426.2c0-24-2.5-20.2,20.1-20.3C4790.8,1873.5,4877.1,1873.4,4963.4,1873.2z"/>
	<path class="st2" d="M4146.4,2245.2c0.2-37.6,1-75.3,0.4-112.9c-0.2-11.8,3.2-15,15-14.8c41.4,0.6,82.8,0,124.2-0.1
		c66.1,0.1,132.1,0.7,198.2,0.1c13.3-0.1,17.4,2.6,17.2,16.7c-0.6,68.9,0.1,137.7,0.3,206.6c-0.2,3.8-0.6,7.5-0.6,11.3
		c0,166.3,0,332.6,0,499c0,2.8,0.4,5.6,0.7,8.4c-0.1,34-0.2,68-0.3,102c-0.1,121.6-0.3,243.1-0.4,364.7c0,22.9,0,22.9-23.1,22.9
		c-104.6,0-209.2-0.4-313.8,0.4c-15.1,0.1-17.5-4.5-17.3-18.1c0.6-49.9-0.1-99.9-0.3-149.8c0.2-4.2,0.6-8.5,0.6-12.7
		c0-303.7,0-607.3,0-911C4147.1,2253.6,4146.7,2249.4,4146.4,2245.2z"/>
	<path class="st1" d="M3099.5,3255.4c-14.9-23.4-30.7-46.3-44.5-70.4c-27.5-48-80-48.9-113.2-11.8c-20.1,22.4-33.6,47.5-40.4,76.6
		c-9.4,40.2-24.7,77.5-56.3,105.7c-36.1,32.1-79.2,54.5-126.9,51.1c-65.7-4.7-120.1-35.9-151.5-97.1
		c-50.8-99.1-0.2-219.1,104.4-250.5c38.6-11.6,76.5-4.7,114.6,2.6c25.6,4.9,51.3,7.7,77.1,1.4c22-5.4,39.4-18,52.9-35.7
		c15.7-20.5,15.1-45.3,0.5-70.1c-87.7-149.8-180.3-296.7-269.7-445.4c-4.4-7.3-8.5-14.7-12.6-22.1c-9.9-18.1-9.5-20.7,7.5-31.8
		c32.4-21.2,64.7-42.5,97.6-62.8c117.9-73,236.1-145.6,354.2-218.2c12-7.4,24.8-13.7,36.7-21.3c7.3-4.7,10.8-2.7,13.7,4.6
		c7.4,18.3,4.6,37.2,2.8,55.9c-3.7,38.9-10.5,77.7-11.5,116.6c-1.4,54.2,19.9,101,56.5,140.9c3.5,3.8,6.9,7.7,10.3,11.6
		c-28.8,0.1-57.6,1.1-86.3,0.1c-13.2-0.5-15.9,3.6-15.8,16.1c0.4,245.3,0.3,490.6,0.3,735.9
		C3099.9,3243.2,3099.7,3249.3,3099.5,3255.4z"/>
	<path class="st1" d="M3901.2,1873.3c-88.2,0.1-176.5,0.3-264.7,0.4c-18.9,0-18.9,0-18.9,18.2c0,355.3,0,710.6,0,1065.9
		c0,6.6-0.5,13.2-0.8,19.7c-29.2,64.5-28.2,128.9,0.1,193.3c0.2,54.5,0.8,109.1,0.4,163.6c-0.1,11.4,2.3,14.8,14.3,14.8
		c74.8-0.5,149.6-0.1,224.3,0c-1.5,8.6-8.9,11.8-15,15.9c-82.7,55.2-168.6,105.4-253.5,157.2c-69.2,42.2-136.9,86.9-208.2,125.6
		c-32.4,17.6-27.3,17.5-46.3-12.2c-60.7-94.3-119-190.1-176.4-286.5c93.9-0.1,187.7-0.6,281.6-0.1c12.9,0.1,15.9-3.3,15.9-16
		c-0.4-262.8-0.3-525.5-0.3-788.3c0-5.7,0.3-11.3,0.4-17c66.2-32,105.8-85.4,120.9-156.3c16-74.7-9.7-138.3-57.5-194.7
		c-30.4-35.9-68.1-60.3-113.9-72.6c-22.7-6.1-45.5-12.8-64.2-28.3c-2.9-2.4-5.9-4.7-8.3-7.6c-16.4-19.3-15.7-25.3,5.3-38.2
		c150.8-92.4,301.7-184.7,452.6-277c4.4-2.7,9.2-4.8,13.7-7.3c8.9-4.9,16.1-3.5,22,5C3852.1,1790.6,3877.6,1831.4,3901.2,1873.3z"/>
	<path class="st2" d="M3454.4,2528c-0.2,5.7-0.4,11.3-0.4,17c0,262.8-0.1,525.5,0.3,788.3c0,12.7-3,16.1-15.9,16
		c-93.9-0.5-187.7-0.1-281.6,0.1c-15.5-0.1-31.1-0.7-46.6-0.2c-8.1,0.2-10.4-2.4-10.3-10.4c0.3-27.8-0.1-55.5-0.2-83.3
		c0.1-6.1,0.4-12.2,0.4-18.4c0-245.3,0.1-490.6-0.3-735.9c0-12.6,2.7-16.6,15.8-16.1c28.7,1,57.5,0.1,86.3-0.1c29.3,0,58.7,0,88,0
		c45.1-0.1,90.2-0.1,135.3-0.2c28.7,2,28.7,2,28.8,30.8C3453.9,2519.7,3454.2,2523.9,3454.4,2528z"/>
	<path class="st1" d="M4146.4,2245.2c0.2,4.2,0.7,8.4,0.7,12.7c0,303.7,0,607.3,0,911c0,4.2-0.4,8.5-0.6,12.7
		c-27.5,16.4-55.2,32.4-82.3,49.4c-12.1,7.6-19.6,4.1-27.1-6.4c-15.4-21.5-11.6-44.9-6.9-68c8.7-42.8,13.8-85.5,4.2-128.7
		c-9.4-42-29.1-78.3-61.9-106.8c-0.3-4.7-0.8-9.4-0.8-14.1c0-301.5,0-603,0-904.5c0-4.2,0.3-8.5,0.5-12.7
		c26.8,43.1,53.6,86.2,80.3,129.4c18.8,30.4,37.1,61.2,56,91.5C4117.8,2225.7,4129.3,2238.7,4146.4,2245.2z"/>
	<path class="st1" d="M4501.8,2340.7c-0.2-68.9-0.9-137.8-0.3-206.6c0.1-14.1-4-16.8-17.2-16.7c-66,0.6-132.1,0-198.2-0.1
		c15.8-54.8,52-91.1,104.5-110.5c123-45.4,247.3,47.2,237.9,178.1c-5.3,73.4-47.4,121.8-113.4,151
		C4510.7,2337.8,4506.2,2339.1,4501.8,2340.7z"/>
	<path class="st1" d="M4501.5,2961.4c0.1-34,0.2-68,0.3-102c12.1,19.6,24.2,39.1,36.2,58.8c5.9,9.7,4.4,17.9-5.5,24
		C4522.1,2948.6,4513.2,2957.1,4501.5,2961.4z"/>
	<path class="st2" d="M5231.6,2427.1c0-302,0.1-604-0.3-906c0-12.5,2.5-16.4,15.8-16.3c108.1,0.6,216.1,0.5,324.2,0.1
		c12-0.1,14.5,3.4,14.5,14.9c-0.3,604.9-0.3,1209.8,0,1814.7c0,11.7-2.9,14.7-14.6,14.7c-108.5-0.5-217.1-0.5-325.6,0
		c-12.2,0.1-14.3-3.5-14.3-14.9C5231.7,3032,5231.6,2729.5,5231.6,2427.1z"/>
	<path class="st0" d="M3616.9,3170.9c-28.3-64.4-29.3-128.9-0.1-193.3C3618.3,3042,3618,3106.5,3616.9,3170.9z"/>
</g>
</svg>
