<?xml version="1.0" encoding="utf-8"?>
<!-- Generator: Adobe Illustrator 22.0.0, SVG Export Plug-In . SVG Version: 6.00 Build 0)  -->
<svg version="1.1" id="Calque_2" xmlns="http://www.w3.org/2000/svg" xmlns:xlink="http://www.w3.org/1999/xlink" x="0px" y="0px"
	 viewBox="0 0 500 500" style="enable-background:new 0 0 500 500;" xml:space="preserve">
<style type="text/css">
	.st0{fill:#B1B6BC;}
	.st1{fill:#FFFFFF;stroke:#B1B6BC;stroke-width:2;stroke-miterlimit:10;}
	.st2{fill:none;stroke:#8F051F;stroke-width:30;stroke-miterlimit:10;}
</style>
<path class="st0" d="M15,127.6c0.1,41.2,0.4,226.2,0.6,259.4c0.2,35.5,40,73.1,78.1,73.5c30.7,0.3,214.1,0.6,261,0.6
	c47,0,80.5-33.8,80.4-88.1s-0.3-219.8,0-245.2c0.6-48-39.9-80.3-80.9-80.4c-28.7-0.1-213.4-0.1-250.1,0
	C49.8,47.5,14.9,86.3,15,127.6z"/>
<g>
	<path class="st1" d="M315.4,206.2c-6.6,4.1-13.3,8.1-19.9,12.2c-1.3,0.8-1.3,0.8-0.7,2.2c0.8,2,2.3,3.2,4.3,4.1
		c1.5,0.7,3.1,1.1,4.6,1.5c4.4,1.4,7.5,4.3,10,8.1c2.3,3.5,3.5,7.2,3.1,11.4c-0.9,8.6-8.3,15.9-16.6,15.7c-7.2-0.1-13.3-3-17.1-9.6
		c-1.8-3.2-2.2-6.7-1.7-10.4c0.4-3.2,0.8-6.4,0.9-9.7c0.1-1.2-0.3-2.4-0.9-3.4c-0.4-0.6-0.8-0.8-1.5-0.4c-5,2.8-9.8,5.8-14.6,8.9
		c-2,1.3-4.1,2.5-6.1,3.8c-7,4.4-14.2,8.5-21,13.1c-0.2,0.2-0.5,0.3-0.7,0.5c-1.6,1.2-1.7,1.5-0.8,3.3c0.8,1.5,1.6,3,2.5,4.4
		c5.9,9.7,11.9,19.5,17.8,29.2c1.4,2.2,2.6,4.6,4,6.8c1.6,2.4,0.1,4.7-1.5,5.9c-2.3,1.7-4.8,1.8-7.5,1.4c-1.5-0.3-3.1-0.5-4.6-0.8
		c-6.3-0.9-11.3,1.4-15,6.4c-3.6,4.9-4.1,10.3-1.6,15.9c2.2,5,6.2,7.6,11.2,9.2c3.5,1.1,6.5,0.1,9.6-1.2c5.2-2.2,8.2-6.4,9.6-11.8
		c0.4-1.8,0.9-3.5,2-5c0.5-0.7,1.1-1.4,1.7-2.1c2.5-2.5,5.6-2.1,7.5,0.9c1.5,2.4,3,4.8,4.4,7.2c5.3,8.6,10.6,17.3,15.9,25.9
		c1.4,2.2,2.8,4.4,4.2,6.6c1,1.5,1.8,1.7,3.5,0.8c4.2-2.2,8.2-4.8,12.3-7.3c8.1-5,16.2-9.9,24.4-14.9c1.4-0.9,2.8-1.8,4.1-2.8
		c1.7-1.2,1.7-2.2,0.4-3.6c-1.4-1.6-3.2-2.6-5.2-3.1c-3.6-1-7-2.3-10-4.8c-8-6.6-8.2-20.8,0.2-27.3c8.5-6.5,18.7-5.2,25.5,3
		c3.6,4.4,4.3,9.4,3.5,14.8c-0.3,1.8-0.8,3.5-0.8,5.3c-0.1,1.9,0.5,3.5,1.9,4.8c0.7,0.6,1.4,0.8,2.2,0.3c0.8-0.4,1.5-0.8,2.3-1.3
		c11-6.8,22.1-13.5,33.1-20.3c1.7-1,3.3-2.2,5-3.3c1.5-1,1.7-1.9,0.8-3.5c-1-1.7-2.1-3.5-3.1-5.2c-3.3-5.4-6.7-10.8-10-16.3
		c-3.4-5.8-6.8-11.5-10.3-17.1c-2.9-4.7,1.1-9.2,5-9.3c2.1-0.1,4.1,0.4,6.1,0.8c3.7,0.7,7.4,0.7,10.9-1c8.2-4,11.2-12.6,8.2-20.4
		c-3.3-8.6-13.1-12.4-21.5-8.6c-5,2.3-7.7,6.2-9.1,11.3c-0.4,1.3-0.7,2.6-1.3,3.9c-0.7,1.7-1.8,3-3.3,4.1c-2.6,1.9-5.6,1.3-7.6-1.5
		c-0.4-0.5-0.7-1-1-1.5c-6.9-11.3-13.8-22.5-20.7-33.8c-0.9-1.4-1.8-2.8-2.7-4.1c-1-1.4-1.7-1.6-3.2-0.8c-1,0.5-2,1.1-3,1.7
		C327.1,198.9,321.2,202.5,315.4,206.2C315.3,206.1,315.4,206.2,315.4,206.2z"/>
	<path class="st1" d="M218.1,231.8c-4-6.6-8-13.2-12.1-19.7c-1-1.6-0.4-3.6,1-5.2c1.4-1.7,3.5-2.3,5.6-2.2c2.5,0.1,4.9,0.8,7.4,1.1
		c6.3,0.7,11.4-1.6,15-6.7c3.6-5.1,3.9-10.6,1.1-16.3c-2-3.9-5-6.6-9.1-7.9c-3.9-1.3-7.7-0.9-11.4,0.7c-4.6,2-7.4,5.6-8.8,10.3
		c-0.6,1.8-1.2,3.6-1.8,5.4c-0.5,1.3-1.2,2.4-2.3,3.3c-2.2,1.8-4.9,0.9-6.7,0c-0.5-0.3-0.7-0.8-1-1.3c-6.8-11.1-13.6-22.1-20.4-33.2
		c-1.3-2.1-2.6-4.1-3.9-6.1c-1.1-1.7-1.9-1.9-3.7-1.1c-0.8,0.4-1.6,0.8-2.4,1.3c-10.7,6.5-21.4,13.1-32.1,19.7
		c-1.9,1.2-3.8,2.5-5.7,3.7c-1.7,1.1-1.8,2.8-0.4,4.2c1.9,1.9,4.4,2.7,6.9,3.5c3.9,1.2,7.3,3.1,9.9,6.3c3.4,4,4.6,8.7,3.8,13.8
		c-0.8,5.4-3.5,9.8-8.2,12.7c-6.8,4.2-15.8,3.3-21.5-2.2c-5-4.8-6.6-10.7-5.5-17.5c0.3-1.7,0.5-3.4,0.7-5c0.2-1.7-0.3-3.2-1.6-4.4
		c-1.1-1-1.5-1.1-2.7-0.3c-12.5,7.6-24.9,15.2-37.4,22.9c-0.9,0.5-1.8,1.1-2.6,1.8c-1.4,1.2-1.6,2-0.7,3.5c1.9,3.2,3.8,6.5,5.7,9.7
		c5.8,9.6,11.7,19.2,17.5,28.7c0.6,1,1.1,2.1,1.1,3.3c0.2,2.6-1.2,4.7-3.7,5.6c-2.8,0.9-5.5,0.4-8.2,0c-3.5-0.6-6.9-0.7-10.2,0.6
		c-6.1,2.3-10,8-10.1,14.8c-0.2,11.6,11.8,19.9,23.1,14.2c4.8-2.4,7.4-6.5,8.7-11.5c0.5-2,1.2-4,2.4-5.7c2.3-3.4,6.8-3.6,9.3-0.3
		c2.6,3.4,4.6,7.2,6.8,10.8c5.2,8.3,10.2,16.7,15.4,25.1c0.8,1.3,1.6,2.5,2.5,3.7c0.9,1.3,1.7,1.4,3.2,0.8c2.3-1.1,4.4-2.5,6.6-3.8
		c11.5-7,22.9-14,34.4-20.9c1.1-0.6,1.2-1.3,0.9-2.4c-0.5-1.8-1.5-3-3.3-3.6c-1.9-0.7-3.9-0.8-5.9-1.5c-4.4-1.6-8.3-3.9-10.8-8
		c-2.5-4-3-8.3-2.2-12.9c0.6-3,1.6-5.8,3.5-8.2c3.4-4.3,8-6.2,13.4-6.5c8.4-0.4,16.7,6.1,18.4,14.3c0.5,2.5,0.3,5-0.2,7.5
		c-0.4,1.8-0.8,3.7-1,5.5c-0.2,1.9,0.4,3.5,1.6,4.9c0.5,0.6,1,0.8,1.7,0.3c0.2-0.1,0.4-0.2,0.6-0.3c13.5-8,27-16.1,40.3-24.3
		c2.8-1.8,3-2,1.2-4.9C226.1,245,222.1,238.4,218.1,231.8C218,231.8,218.1,231.8,218.1,231.8z"/>
	<path class="st1" d="M220,230.9c3.9,6.3,7.7,12.7,11.6,19c0.4,0.7,0.9,1.3,1.4,1.9c0.7,0.9,1.5,1.1,2.6,0.6
		c0.8-0.4,1.5-0.8,2.2-1.3c10.1-6.2,20.2-12.3,30.3-18.5c3.4-2.1,6.9-4.1,10.4-5.9c0.8-0.4,1.5-0.3,2.2,0.2
		c3.4,2.7,4.4,6.2,3.4,10.4c-0.7,2.7-1.3,5.4-0.7,8.1c1,4.9,3.3,9.2,7.8,11.7c5.3,3,10.6,2.7,16-0.4c6-3.4,8.6-11.1,6.7-17.4
		c-1.7-5.8-5.5-9.6-11.4-11.3c-1.8-0.5-3.5-1-5.3-1.7c-4-1.6-4.5-4.2-4-8.2c0.1-0.5,0.5-0.7,0.9-1c3.5-2.2,7.1-4.3,10.6-6.5
		c9-5.9,18.4-11.3,27.5-17c0.9-0.6,1.8-1.2,2.7-1.9c0.9-0.8,1.2-1.8,0.8-2.9c-0.2-0.7-0.6-1.3-0.9-1.8
		c-7.2-11.7-14.4-23.4-21.5-35.1c-0.8-1.3-1.6-2.5-2.4-3.7c-1.1-1.7-2.7-1.7-3.9-0.2c-1.7,2.2-2.5,4.8-3.4,7.3
		c-1.1,3.2-2.6,6.1-5.2,8.5c-7.7,7.2-19.6,6.4-26.3-1.8c-6.7-8.1-4.6-20.5,4.3-26.2c4.5-2.8,9.2-3.5,14.3-2.6
		c1.8,0.3,3.7,0.5,5.6,0.6c1.4,0,2.6-0.4,3.4-1.8c0.7-1.2,0.2-2.3-0.4-3.4c-6.8-11.1-13.6-22.2-20.4-33.3c-1-1.7-2.1-3.3-3.2-4.9
		c-1.3-2-2.5-2.3-4.5-1.1c-6.7,3.8-13.2,7.8-19.8,11.8c-5.9,3.6-11.9,7.3-17.8,10.9c-1.1,0.7-2.2,1.1-3.4,1.3
		c-2.6,0.3-4.4-0.9-5.3-3.3c-0.8-2.4-0.8-4.8-0.4-7.3c0.2-1.4,0.5-2.8,0.7-4.2c0.6-3.2-0.1-6.2-1.7-8.9c-1.5-2.6-3.4-4.9-6-6.6
		c-4.4-2.9-9-2.8-13.6-0.5c-1.4,0.7-2.8,1.5-4.2,2.5c-4.8,3.3-6.7,8-6,13.6c0.9,7.2,5,11.7,11.8,13.9c1.8,0.6,3.7,1,5.4,1.8
		c1.1,0.5,2.2,1.2,3.1,2.1c2.4,2.4,2.3,5.5-0.5,7.5c-1.2,0.9-2.5,1.8-3.8,2.6c-10.4,6.4-20.9,12.8-31.3,19.1
		c-1.9,1.1-3.7,2.3-5.5,3.6c-1.2,0.9-1.5,1.7-0.9,3.1c0.1,0.3,0.3,0.5,0.4,0.8c7.8,13.3,15.9,26.4,23.9,39.6
		c0.4,0.7,0.9,0.9,1.7,0.8c2.3-0.4,4-1.6,4.9-3.8c0.7-1.8,1.2-3.6,1.8-5.4c4.1-12.1,18.6-16.9,29.4-8.3c5.1,4.1,6.7,9.7,6,16
		c-1.2,10.4-10.3,17.1-21,15.7c-1.9-0.2-3.7-0.7-5.6-0.7c-2,0-3.7,0.6-5.4,1.7c-0.9,0.6-1,1.2-0.4,2.2c3.3,5.3,6.5,10.6,9.7,15.9
		C218.3,228.2,219.1,229.5,220,230.9C220,230.9,220,230.9,220,230.9z"/>
	<path class="st1" d="M179.6,400.6c4,6.6,8,13.1,12,19.7c1.1,1.9,1.7,2,3.6,0.9c12.7-7.3,25.1-15.2,37.6-22.7
		c0.7-0.4,1.4-0.9,2.2-1.2c3.2-1.3,6.6,0.3,7.6,3.7c0.7,2.1,0.5,4.3,0,6.4c-0.7,3.2-1.1,6.4-0.3,9.6c2.3,9.1,12.4,14.5,21.1,10.9
		c9.5-3.9,12.5-13.4,8.5-21.8c-2.1-4.5-5.7-7.1-10.4-8.4c-2.6-0.8-5.1-1.5-7.2-3.2c-2.9-2.4-3.3-5.7-0.9-8.2
		c0.6-0.6,1.2-1.1,1.9-1.6c9.5-5.8,19-11.6,28.4-17.4c3.1-1.9,6.3-3.7,9.2-5.9c1.4-1,1.6-2.1,0.8-3.6c-1.7-3.4-3.8-6.5-5.8-9.8
		c-4.7-7.8-9.5-15.6-14.3-23.4c-1.5-2.4-2.9-4.9-4.6-7.2c-0.6-0.8-1.3-1.2-2.3-1.2c-1,0.1-1.8,0.6-2.1,1.6c-0.7,1.9-1.2,3.8-1.9,5.8
		c-0.9,2.7-2,5.4-3.8,7.6c-3.1,4.1-7.4,6.4-12.4,6.8c-4.8,0.4-9.5-0.5-13.4-3.7c-5.6-4.6-7.5-10.6-6.3-17.6
		c0.7-4.1,2.6-7.7,5.8-10.4c4.5-3.8,9.7-5.2,15.5-4.1c1.6,0.3,3.1,0.6,4.7,0.7c1.3,0.1,2.6-0.1,3.8-0.5c1.9-0.6,2.5-2.2,1.6-4
		c-0.7-1.3-1.4-2.7-2.2-4c-6.5-10.7-13.1-21.4-19.6-32.1c-0.8-1.3-1.7-2.5-2.5-3.8c-0.9-1.3-1.7-1.4-3.1-0.7c-1.9,1-3.8,2.1-5.6,3.2
		c-11.6,7.1-23.2,14.2-34.8,21.3c-2.7,1.7-6.5,0-7.2-3.4c-0.6-2.9-0.5-5.9,0-8.8c0.6-4.2,0.1-8.1-2.1-11.8
		c-4.6-7.3-13.9-9.5-21.3-5.1c-9.4,5.6-10.5,19.3-0.3,26.2c3,2,6.3,3.1,9.5,4.6c1.3,0.6,2.7,1.1,3.7,2.2c2,2.1,1.5,5.9-1,7.4
		c-12.3,7.5-24.7,15.1-37,22.6c-1,0.6-2,1.2-2.9,1.9c-1.1,1-1.4,2.3-0.6,3.6c7.9,13,15.8,25.9,23.8,38.9c0.4,0.6,0.9,1.2,1.4,1.8
		c0.8,1,1.9,1,2.8,0.1c1.8-1.8,2.7-4.2,3.5-6.5c1.3-3.8,2.9-7.3,5.9-10.1c7.4-6.8,19.2-6.2,25.7,1.4c7.1,8.3,5.1,21.2-4.2,26.9
		c-4.3,2.7-8.9,3.1-13.7,2.3c-1.6-0.3-3.1-0.5-4.7-0.5c-0.8,0-1.5,0-2.3,0.1c-2.9,0.4-3.6,2-2.1,4.5c2,3.3,4.1,6.7,6.1,10
		C175.6,394,177.6,397.3,179.6,400.6C179.6,400.6,179.6,400.6,179.6,400.6z"/>
</g>
<line class="st2" x1="292" y1="330.3" x2="292" y2="257.1"/>
<line class="st2" x1="335.8" y1="330.3" x2="335.8" y2="205.3"/>
<line class="st2" x1="380.7" y1="330.3" x2="380.7" y2="226"/>
<line class="st2" x1="426.3" y1="205.3" x2="426.3" y2="330.3"/>
<line class="st2" x1="472.6" y1="330.3" x2="472.6" y2="174.1"/>
</svg>
