<?xml version="1.0" encoding="utf-8"?>
<!-- Generator: Adobe Illustrator 22.0.0, SVG Export Plug-In . SVG Version: 6.00 Build 0)  -->
<svg version="1.1" id="Calque_2_1_" xmlns="http://www.w3.org/2000/svg" xmlns:xlink="http://www.w3.org/1999/xlink" x="0px"
	 y="0px" viewBox="0 0 463 389.8" style="enable-background:new 0 0 463 389.8;" xml:space="preserve">
<style type="text/css">
	.st0{fill:#A22E2B;}
	.st1{fill:#B2B6BC;}
	.st2{fill:#FFFFFF;}
	.st3{fill:none;stroke:#B6BABF;stroke-width:13;stroke-miterlimit:10;}
	.st4{fill:#A22E2B;stroke:#842623;stroke-width:10;stroke-miterlimit:10;}
</style>
<path class="st0" d="M539.5,283.4"/>
<g>
	<path class="st1" d="M0,79.2c0.1,37.7,0.3,206.8,0.6,237.3c0.2,32.4,36.5,66.8,71.4,67.2c28.1,0.3,195.7,0.6,238.6,0.5
		c42.9,0,73.6-31,73.5-80.6c-0.1-49.6-0.3-201.1,0-224.3c0.5-44-36.5-73.4-74-73.5c-26.2-0.1-195.1-0.1-228.6,0
		C31.8,5.9-0.1,41.4,0,79.2z"/>
	<rect x="8.8" y="78" class="st2" width="366.4" height="233.7"/>
	<circle class="st1" cx="95.2" cy="144.8" r="31.1"/>
	<path class="st1" d="M46.4,256.7c0-28.3,13.4-69.1,47.3-69.1s50.8,43.9,50.6,69.2C123.6,256.7,65.7,256.9,46.4,256.7z"/>
	<line class="st3" x1="207.8" y1="114" x2="317.4" y2="114"/>
	<line class="st3" x1="208" y1="144.5" x2="271" y2="144.5"/>
	<line class="st3" x1="207.8" y1="172.9" x2="254" y2="172.9"/>
	<line class="st3" x1="207.8" y1="201.8" x2="268.4" y2="201.8"/>
	<line class="st3" x1="207.8" y1="230.9" x2="236.4" y2="230.9"/>
	<line class="st3" x1="207.8" y1="259.9" x2="243.9" y2="259.9"/>
	<path class="st4" d="M259.4,242.6c1.7,8.3,7.6,13.3,15.5,15.2c7.7,1.8,14.4-1,19.7-6.8c1.7-1.7,2.8-3.8,3.8-6
		c1.7-3.8,4.1-6.9,8.7-7.6c5-0.7,7.9,2.1,10.3,5.8c2.6,4,4.6,8.3,6.6,12.5c3.7,8,7,16,9.7,24.4c0.6,1.9,1.8,2.5,3.9,1.8
		c9.7-3.8,19.5-7.7,29-11.9c3.4-1.6,6.8-3.1,9.3-6c2.8-3.3,3.4-8.5,0.8-11.7c-1.7-2-4.2-3.2-6.6-4.5c-13.2-7-16.1-22.6-8.2-32.3
		c8.1-9.9,21.2-10.2,30-2c5.4,5,7.5,11.7,7.5,19.1c0,5.3,3.2,9.4,8,9.6c3.6,0.1,7-1,9.9-3.4c5-4.4,10.2-8.5,15.1-13
		c4-3.5,7.7-7.3,11.6-10.9c1.6-1.5,1.5-2.7-0.2-4.3c-2.8-2.6-5.4-5.4-8.1-8.3c-6.9-7.5-13.7-15-18.9-23.8c-1.8-3.1-2.4-6.2-0.7-9.3
		c2.1-3.8,5.4-5.5,9.9-5.4c12.9,0.5,23.4-7.8,23.4-21c-0.1-1.3-0.1-2.6-0.4-3.8c-1.9-7.5-6.2-12.7-13.9-15.1
		c-7.2-2.2-13.5-1-19.1,3.7c-3.9,3.2-6.5,7.5-8.6,11.8c-2.9,5.9-12.6,6.5-16,1.1c-2.2-3.6-4.6-7.1-6.3-10.9
		c-3.9-8.2-7.8-16.3-10.7-24.8c-0.8-2.1-1.7-2.5-3.9-1.9c-6.7,1.8-13.3,4-19.8,6.5c-5,1.9-10.1,4.2-14.9,7c-5,3.1-6.2,7.7-2.9,12.5
		c1.2,1.7,3.2,2.6,5,3.7c5.3,3.4,10.2,7.2,11.8,13.8c2.9,11.3-5,24.9-18.4,25.6c-8.4,0.5-15.5-2.1-19.5-10.3
		c-2.1-4.5-2.7-9.2-3.2-14.1c-0.5-5.5-6.2-8.9-11.3-6.6c-2.1,1-4.2,2.3-6,3.8c-6,4.8-11.5,10.2-16.8,15.7c-2.2,2.3-4.4,4.7-6.5,7.1
		c-0.9,1.1-2,2-0.4,3.7c4.7,4.6,9.1,9.4,13.2,14.6c4.1,5,8.3,9.9,11.7,15.4c4.7,7.7-1.3,15.4-8.3,15.4c-6.1,0-12.3,1-17.5,5.1
		C260,227.4,257.7,234.5,259.4,242.6z"/>
</g>
</svg>
