<?xml version="1.0" encoding="utf-8"?>
<!-- Generator: Adobe Illustrator 22.0.0, SVG Export Plug-In . SVG Version: 6.00 Build 0)  -->
<svg version="1.1" id="Calque_2" xmlns="http://www.w3.org/2000/svg" xmlns:xlink="http://www.w3.org/1999/xlink" x="0px" y="0px"
	 viewBox="0 0 500 500" style="enable-background:new 0 0 500 500;" xml:space="preserve">
<style type="text/css">
	.st0{fill:#B1B6BC;}
	.st1{fill:#FFFFFF;}
	.st2{fill:none;stroke:#B6B9BE;stroke-width:12.1145;stroke-miterlimit:10;}
	.st3{fill:#8F051F;}
</style>
<path class="st0" d="M55.2,147.2c0.1,36.2,0.3,198.5,0.5,227.7c0.2,31.1,35.1,64.1,68.5,64.5c26.9,0.3,187.9,0.5,229.1,0.5
	s70.7-29.7,70.5-77.3s-0.3-193,0-215.2c0.5-42.2-35-70.4-71-70.5c-25.2-0.1-187.3-0.1-219.5,0C85.8,76.9,55.1,111,55.2,147.2z"/>
<rect x="63.7" y="146.1" class="st1" width="351.7" height="224.3"/>
<circle class="st0" cx="161.6" cy="224.2" r="29.8"/>
<path class="st0" d="M114.7,331.7c0-27.2,12.9-66.3,45.4-66.3s48.8,42.1,48.6,66.4C188.8,331.7,133.2,331.9,114.7,331.7z"/>
<line class="st2" x1="247.5" y1="200.6" x2="352.7" y2="200.6"/>
<line class="st2" x1="249.7" y1="228.7" x2="339" y2="228.7"/>
<line class="st2" x1="249.7" y1="256.7" x2="276.8" y2="256.7"/>
<line class="st2" x1="311.5" y1="256.7" x2="330.6" y2="256.7"/>
<line class="st2" x1="250" y1="340" x2="267.3" y2="340"/>
<path class="st3" d="M478.4,120.8C406,137.3,338.9,280.7,330,301.4c3.9,20.4,8,40.1,22.7,59.6c6.8-26.1,64-173.5,125.7-207.1
	C478.4,141.5,478.4,130.3,478.4,120.8z"/>
<rect x="303" y="301" class="st3" width="49.7" height="60"/>
<rect x="252.6" y="282.9" transform="matrix(-0.6262 -0.7796 0.7796 -0.6262 240.6748 735.1136)" class="st3" width="87.8" height="53.9"/>
</svg>
